<?xml version="1.0" encoding="utf-8"?>
<!-- Generator: Adobe Illustrator 24.0.1, SVG Export Plug-In . SVG Version: 6.00 Build 0)  -->
<svg version="1.1" id="Camada_1" xmlns="http://www.w3.org/2000/svg" xmlns:xlink="http://www.w3.org/1999/xlink" x="0px" y="0px"
	 viewBox="0 0 36 36" style="enable-background:new 0 0 36 36;" xml:space="preserve">
<style type="text/css">
	.st0{fill:#3F3F3F;}
	.st1{fill:#1C1C1C;}
	.st2{fill:#969696;}
	.st3{fill:#23A0E5;}
	.st4{fill:#FFFFFF;}
</style>
<path class="st0" d="M11.9,27C-1,7.9,7.5,2.8,9.1,2c0.1-0.1,0.2-0.1,0.2-0.1C9.8,1.7,10,1.2,9.9,0.8C9.8,0.3,9.4,0,8.9,0H4.8
	c-3.8,0-9.1,11,1,28c0.2,0.3,5.1,0,5.1,0C11.5,28,12.3,27.5,11.9,27z M31.2,0h-4c-0.5,0-0.9,0.3-1,0.8c-0.1,0.4,0.1,0.9,0.5,1.1
	c0,0,0.1,0,0.2,0.1c1.6,0.8,10,5.9-2.8,25c-0.3,0.5,0.4,1,1,1c0,0,4.9,0.3,5,0C40.2,11,35,0,31.2,0z"/>
<path class="st1" d="M6.9,28.8L6.9,28.8c-0.1-0.3,5.4-1.4,5.1-1.8C-1,7.9,7.5,2.8,9.1,2H4.8C1.1,2-3.3,13,6.9,28.8z M31.2,2H27
	c1.6,0.8,10,5.9-2.8,25c-0.3,0.5,5,1.8,5,1.8C39.2,13,35,2,31.2,2z"/>
<path class="st0" d="M9.9,8c-0.6,0-1-0.4-1-1c0-3.3-2-5-4.1-5c-0.5,0-0.1-0.8,0-1.2C5,0.3,5.4,0,5.9,0h5.1c3.8,0,4.9,6.1,5.1,6.8
	c0,0.3,0,0.6-0.2,0.8C15.6,7.9,15.3,8,15,8H9.9z M26.2,8c0.6,0,1-0.4,1-1c0-3.3,2-5,4-5c0.5,0,0.1-0.8,0-1.2c-0.1-0.4-0.5-0.8-1-0.8
	h-5c-3.7,0-4.9,6.1-5,6.8c0,0.3,0,0.6,0.2,0.8C20.7,7.9,20.9,8,21.2,8H26.2z"/>
<path class="st2" d="M6,32c0,0,0,4,4,4h16c0,0,4,0,4-4V10c0,0,0-4-4-4H10c-4,0-4,4-4,4V32z"/>
<path class="st3" d="M24.4,28H11.6C10.2,28,9,26.8,9,25.4v-14c0-1.4,1.2-2.6,2.6-2.6h12.8c1.4,0,2.6,1.2,2.6,2.6v14
	C27,26.8,25.8,28,24.4,28z"/>
<path class="st4" d="M16,25c0,0,0-1,1-1h2c0,0,1,0,1,1v5c0,0,0,1-1,1h-2c0,0-1,0-1-1V25z"/>
</svg>
